<?xml version="1.0" encoding="utf-8"?>
<!-- Generator: Adobe Illustrator 23.0.1, SVG Export Plug-In . SVG Version: 6.00 Build 0)  -->
<svg version="1.1" id="Layer_1" xmlns="http://www.w3.org/2000/svg" xmlns:xlink="http://www.w3.org/1999/xlink" x="0px" y="0px"
	 viewBox="0 0 437.33 53.33" style="enable-background:new 0 0 437.33 53.33;" xml:space="preserve">
<g>
	<path d="M19.08,6.57l-0.05,0.19L18.9,7.39c-0.03,0.09-0.09,0.19-0.19,0.28c-0.33,0-0.54-0.02-0.63-0.05l-1.2-0.38l-1.36-0.33
		l-1.57-0.16l-0.73,0.07l-0.77,0.05c-0.52,0.09-0.85,0.14-1.01,0.14c-0.06,0.02-0.19,0.05-0.38,0.09s-0.38,0.09-0.59,0.14
		c-0.44,0.13-0.85,0.3-1.24,0.52L9.01,7.93L8.87,8.07L8.51,8.54L8.23,9.17L7.9,10.08l-0.35,1.2l-1.66,7.2L5.8,18.97l-0.05,0.47
		c0,0.31,0.05,0.54,0.14,0.68c0.05,0.17,0.19,0.28,0.42,0.33H6.4l0.49-0.42l1.34-1.05l1.88-0.91c0.75-0.28,1.59-0.46,2.51-0.54h0.61
		l0.68-0.09h0.47h0.45l1.71,0.14c0.45,0.05,0.77,0.2,0.96,0.45l0.12,0.42l0.05,0.54v0.23v0.19l-0.16,0.91l-0.19,0.68l-0.09,0.23
		l-0.33,0.05H16.6h-0.68l-0.73-0.05h-0.87h-0.91h-0.66h-0.68l-0.68,0.09l-0.66,0.05c-0.47,0-1,0.08-1.59,0.23l-1.34,0.35l-1.27,0.42
		L5.21,22.9l-0.28,1.29c-0.05,0.48-0.13,0.87-0.23,1.15l-0.26,1.29l-0.19,1.5L4.2,28.95l-0.05,0.87v0.23l-0.14,1.66l-0.05,1.17
		l0.05,0.23v0.09l1.38-0.05l3.23-0.28c0.22,0,0.41-0.02,0.56-0.05c0.09-0.03,0.22-0.07,0.38-0.11s0.3-0.07,0.45-0.11l1.29-0.28
		l1.15-0.28l1.01-0.35c1.19-0.41,2.1-0.79,2.74-1.15c0.56-0.28,1.05-0.45,1.45-0.52c0.19,0.06,0.31,0.11,0.38,0.14
		c0.06,0.06,0.09,0.13,0.09,0.19l0.05,0.09v0.14l-0.09,0.49l-0.23,0.47l-0.4,0.49l-0.42,0.47l-1.29,0.87l-2.32,1.2l-2.16,0.96
		l-2.34,0.73l-2.06,0.42l-1.92,0.21H4.74H4.53L4.3,36.87H4.06H3.83c-0.44,0-0.77-0.07-1.01-0.21c-0.3-0.09-0.45-0.31-0.45-0.66
		v-0.26l0.09-0.33l-0.19-0.05l-0.19-0.09L2,35.23l-0.28-0.09l-0.26-0.05c-0.16-0.16-0.27-0.32-0.33-0.49l-0.05-1.24v-1.01l0.05-1.1
		v-1.05l0.05-1.01l0.05-0.91l0.05-0.82v-0.19v-0.68l0.09-0.82l0.82-7.85l0.14-1.27l0.19-1.34l0.3-1.73l0.33-1.57
		c0.08-0.58,0.2-1.11,0.38-1.59c0.17-0.38,0.3-0.6,0.4-0.68L4.11,9.5L4.3,9.31l0.19-0.14l0.21-0.14l0.23-0.19l0.28-0.21L5.3,8.26
		l0.45-0.82l0.28-0.33l0.28-0.35l0.68-0.47l0.52-0.33l0.12-0.05L7.9,5.7l0.28-0.19l0.33-0.28l0.35-0.28l0.19-0.14L9.24,4.6
		c0.36-0.36,0.94-0.71,1.73-1.05c0.44-0.16,1-0.31,1.69-0.47c0.61-0.09,1.38-0.14,2.3-0.14l0.61-0.05l0.91-0.05h0.21h0.23
		c0.48,0,0.79,0.02,0.91,0.05c0.06,0.02,0.15,0.05,0.27,0.11s0.29,0.13,0.5,0.22c0.5,0.19,0.75,0.59,0.75,1.2v0.09V4.6L19.08,6.57z"
		/>
	<path d="M20.82,31.3l-0.09,0.14l-0.16,0.14l-0.14,0.09c-0.19,0.25-0.39,0.4-0.61,0.45c-0.23,0-0.35-0.29-0.35-0.87
		c0-0.55,0.13-0.98,0.4-1.29c0.16-0.23,0.28-0.4,0.38-0.49c0.19-0.19,0.34-0.33,0.45-0.42l0.19-0.14l0.09-0.09l0.14-0.16h0.05
		l0.19-0.23l0.14-0.09l0.16-3.4c0.08-0.72,0.14-1.22,0.19-1.5c0.13-0.73,0.23-1.24,0.33-1.52l0.68-2.37l1.01-2.63l0.7-1.83
		l0.82-1.92c0.61-1.42,1.16-2.52,1.64-3.3l1.73-2.84c0.34-0.52,0.8-1.05,1.38-1.59c0.44-0.38,0.91-0.6,1.43-0.68h0.21L32,4.81
		c0.48,0.09,0.85,0.41,1.1,0.94c0.22,0.5,0.33,1.08,0.33,1.73c0,0.86-0.11,1.76-0.33,2.7c-0.02,0.11-0.13,0.57-0.33,1.38
		c-0.06,0.28-0.14,0.57-0.25,0.87s-0.18,0.55-0.25,0.77l-0.47,1.29l-0.45,1.24l-0.38,0.91l-0.28,0.87l-0.26,0.63l-0.28,0.61
		l-1.01,2.13l-1.15,1.97c-0.95,1.56-1.7,2.7-2.25,3.4l-1.27,1.69c0,0.39,0.04,0.73,0.12,1.01l0.23,1.1c0.16,0.59,0.39,1.19,0.7,1.78
		c0.38,0.5,0.88,0.87,1.5,1.1l0.19,0.09h0.23l0.21,0.05h0.19h0.33c0.61,0,1.23-0.21,1.88-0.63l1.73-1.2l1.1-1.01l0.66-0.73
		l0.16-0.05l0.09-0.05l0.19,0.09l0.09,0.19l0.05,0.21c0,0.66-0.14,1.2-0.42,1.62c-0.16,0.33-0.46,0.7-0.91,1.1l-0.45,0.35
		l-0.47,0.38l-0.68,0.63l-0.96,0.82c-0.45,0.31-1.05,0.65-1.78,1.01c-0.73,0.34-1.39,0.52-1.97,0.52h-0.14
		c-1.16,0-2.07-0.34-2.73-1.01s-1.16-1.38-1.49-2.11l-0.42-1.5l-0.16-1.15l-0.23,0.26l-0.14,0.09l-0.05,0.05l-0.09,0.09l-0.09,0.09
		L20.82,31.3z M25.62,23.37l0.8-1.15l1.05-1.83l0.96-2.02c0.05-0.22,0.13-0.41,0.26-0.56l0.23-0.68l0.19-0.49l0.19-0.52l0.73-2.16
		l0.33-1.69l-0.09-0.42l-0.14-0.26c-0.03,0.03-0.06,0.05-0.09,0.05c-0.03,0.03-0.24,0.26-0.63,0.68l-1.1,1.92l-0.28,0.59l-0.28,0.56
		l-0.49,1.01l-0.38,0.91l-0.77,1.69l-0.54,1.52l-0.47,1.88l-0.38,2.06L25.62,23.37z"/>
	<path d="M41.58,35.37c-1.41,0.55-2.54,0.82-3.4,0.82h-0.16c-1.31,0-2.4-0.5-3.26-1.5c-0.83-1.11-1.24-2.32-1.24-3.63v-0.3
		c0-1.63,0.29-3.14,0.87-4.55c0.33-0.86,0.63-1.5,0.91-1.92c0.41-0.66,0.76-1.17,1.05-1.55l0.14-0.14l1.59-1.62
		c0.16-0.14,0.42-0.34,0.8-0.59c0.28-0.2,0.59-0.38,0.91-0.52l0.87-0.35l0.87-0.09l0.87,0.14l0.82,0.4
		c0.22,0.17,0.39,0.38,0.52,0.61l0.19,0.87c0,0.45-0.13,1.02-0.38,1.69c-0.08,0.2-0.22,0.49-0.42,0.87
		c-0.06,0.11-0.17,0.27-0.33,0.49s-0.27,0.39-0.35,0.52l-0.68,0.87l-0.82,0.84l-0.23,0.26l-0.23,0.19l-0.54,0.47l-0.52,0.4
		l-1.55,1.05l-0.75,0.42v0.23l-0.05,0.26v0.23v0.47l0.09,0.49c0.09,0.39,0.33,0.77,0.7,1.15c0.38,0.3,0.94,0.49,1.69,0.59h0.19h0.19
		h0.21h0.19c0.69,0,1.42-0.21,2.2-0.63l1.97-1.2l1.15-0.91l0.77-0.68c0.08-0.13,0.17-0.19,0.28-0.19c0.03,0,0.06,0.02,0.09,0.05
		l0.3,0.33v0.21l0.05,0.19l0.05,0.23c0,0.41-0.07,0.71-0.21,0.91l-0.56,0.73C44.59,33.69,42.98,34.83,41.58,35.37z M39.38,25.67
		l0.33-0.42l0.23-0.38c0.19-0.22,0.3-0.49,0.35-0.82c0-0.23-0.12-0.41-0.35-0.54l-0.09-0.05h-0.14c-0.19,0.03-0.33,0.09-0.42,0.19
		l-0.4,0.4l-0.19,0.23l-0.09,0.19l-0.14,0.14l-0.09,0.14l-0.09,0.12l-1.05,1.29c-0.14,0.19-0.21,0.36-0.21,0.52
		c0,0.08,0.04,0.2,0.12,0.35c0.06,0.06,0.14,0.09,0.23,0.09c0.17,0,0.38-0.09,0.61-0.28l1.31-1.08L39.38,25.67z"/>
	<path d="M48.08,30.29l-0.3,0.38l-0.09,0.09l-0.56,0.59l-0.68,0.63c-0.03,0.03-0.06,0.05-0.09,0.05c-0.08,0-0.16-0.06-0.23-0.19
		l-0.21-0.68c0-0.56,0.18-1.06,0.54-1.5l1.01-1.24l0.38-0.38l0.4-0.4l0.14-0.14l0.14-0.19l0.68-0.82l0.28-0.42l0.42-0.91l1.01-1.88
		l0.45-0.68l0.47-0.66l0.21-0.3l0.23-0.28l0.14-0.19l0.19-0.19l1.01-1.15l1.05-1.13c0.81-0.83,1.62-1.55,2.41-2.16
		c0.75-0.55,1.44-0.87,2.06-0.96h0.14l0.14,0.05c0.2,0,0.38,0.16,0.52,0.49l0.21,0.96l-0.05,0.77c-0.02,0.11-0.13,0.34-0.35,0.7
		l-1.2,1.55l-1.83,2.02l-0.19,0.23l-0.19,0.19l-2.46,2.51l-1.15,1.1l-0.14,0.68l-0.05,0.56v0.68l0.09,0.73l0.14,0.66l0.26,0.73
		l0.52,0.96l0.59,0.91l1.01,1.43l0.47,0.54l0.4-0.45l0.96-1.05l0.05-0.05l0.38-0.38l0.38-0.45l1.22-1.15l1.05-1.01
		c0.06-0.03,0.13-0.05,0.19-0.05s0.13-0.02,0.19-0.05l0.09,0.4v0.14v0.19v0.28c0,0.56-0.13,1.03-0.38,1.41l-0.87,0.89l-0.09,0.12
		l-0.4,0.38l-0.33,0.33l-0.38,0.45l-0.4,0.56l-0.09,0.09l-0.38,0.63l-0.35,0.42l0.45,0.59l0.91,1.2l0.7,1.36l0.49,1.48l0.09,0.54
		l0.05,0.52v0.28c0,0.48-0.11,0.95-0.33,1.41c-0.16,0.47-0.4,0.96-0.73,1.48c-0.73,1.33-1.92,2.61-3.56,3.84
		c-0.77,0.61-1.56,1.05-2.39,1.34c-0.77,0.33-1.58,0.49-2.44,0.49H50h-0.16c-0.86,0-1.53-0.24-2.02-0.73
		c-0.47-0.47-0.7-1.13-0.7-1.97v-0.28c0-0.98,0.08-1.77,0.23-2.34c0.14-0.52,0.35-1.02,0.63-1.5l0.42-0.77l0.59-0.75l0.47-0.73
		l0.59-0.77l0.38-0.52l0.47-0.54l1.45-1.64l0.96-1.05l-0.87-0.8l-1.01-1.01l-0.96-1.13l-0.77-1.24l-0.23-0.61l-0.19-0.63l-0.09-0.49
		l-0.09-0.47l-0.05-0.33l-0.05-0.4l-0.3,0.14l-0.19,0.16L48.08,30.29z M53.07,39.94l-1.22,1.52l-0.8,1.05l-0.68,1.1l-0.14,0.3
		l-0.14,0.23l-0.3,0.52l-0.28,0.54l-0.33,0.77l-0.09,0.82l0.05,0.47l0.14,0.47c0.05,0.17,0.16,0.32,0.33,0.45l0.59,0.14
		c0.3,0,0.7-0.09,1.2-0.28l1.38-0.77c0.83-0.63,1.5-1.22,2.02-1.78c0.61-0.63,1.05-1.34,1.31-2.16l0.14-0.42l0.05-0.4v-0.23
		l0.05-0.23c0-0.89-0.2-1.61-0.59-2.16c-0.44-0.61-0.88-1.14-1.34-1.59L53.07,39.94z"/>
	<path d="M78.12,32.89c-0.56,0.19-1.16,0.28-1.78,0.28c-0.88,0-1.72-0.24-2.53-0.71c-0.81-0.48-1.31-1.23-1.5-2.26
		c0-0.2-0.03-0.35-0.09-0.45l-0.09-0.33l-0.14-0.19l-0.14-0.33l-0.4,0.23l-0.8,0.52l-0.16,0.09l-0.09,0.12L70.1,30.1l-0.23,0.19
		l-0.87,0.73l-0.77,0.75l-0.09,0.16l-0.09,0.09l-1.1,1.05c-0.11,0.11-0.31,0.27-0.59,0.47c-0.14,0.09-0.38,0.26-0.7,0.49l-0.4,0.23
		l-0.38,0.23l-0.14,0.09l-0.14,0.09l-0.73,0.49l-0.82,0.14l-0.63-0.09l-0.7-0.33c-0.2-0.16-0.38-0.46-0.54-0.91l-0.14-1.31v-0.91
		c0-0.28,0.03-0.55,0.09-0.8l-1.1,1.01c-0.03,0.09-0.14,0.17-0.33,0.23l-0.09-0.54v-0.14v-0.28v-0.14c0-0.34,0.08-0.7,0.23-1.05
		c0.13-0.27,0.34-0.55,0.66-0.87L60.73,29l0.23-0.26l0.23-0.23l0.28-0.28l2.04-1.97l2.39-2.25l0.52-0.49l0.59-0.47l4.58-3.84
		c1.38-1.09,2.21-1.69,2.49-1.78l0.68-0.14l0.92-0.05c0.45,0,0.87,0.05,1.24,0.14c0.36,0.16,0.57,0.46,0.63,0.91v0.05v0.05
		c-0.08,0.52-0.26,0.84-0.54,0.96l-0.92,0.23h-0.19l-0.54,0.05l-0.42,0.14l-0.45,0.4l-0.28,0.38l-0.09,0.09l-0.42,0.59l-0.59,0.42
		c-0.5,0.34-0.84,0.62-1.01,0.82l-0.87,0.96l-0.19,0.19l-0.14,0.21l-0.19,0.14l-0.09,0.14l-0.96,0.96l-1.01,1.05l-0.21,0.19
		l-0.14,0.19l-2.44,2.74c-0.31,0.34-0.52,0.66-0.63,0.96c-0.03,0.06-0.05,0.14-0.05,0.23c0,0.11,0.05,0.19,0.14,0.23l0.21,0.09
		l0.19,0.07l0.19,0.05l0.23-0.05l0.23-0.16l1.46-1.2l1.38-1.15l1.92-1.73l1.88-1.92l0.42-0.23l0.68-0.23h0.23l0.21-0.05l0.7,0.14
		c0.2,0.09,0.31,0.22,0.31,0.38c0,1.7,0.06,2.88,0.19,3.52c0.09,0.75,0.35,1.36,0.77,1.83l0.42,0.23l0.63,0.05l0.47-0.05l0.54-0.14
		c0.23-0.05,0.39-0.11,0.47-0.19l0.54-0.4c0.13-0.06,0.2-0.09,0.23-0.09c0.14,0,0.23,0.06,0.28,0.19c0.09,0.2,0.14,0.52,0.14,0.96
		v0.4l-0.09,0.28L80,31.58l-0.38,0.4C79.23,32.33,78.73,32.64,78.12,32.89z"/>
	<path d="M102.19,29.47l0.09-0.05l0.19,0.09l0.09,0.19l0.05,0.21v0.28l0.05,0.19v0.19v0.19l-0.14,0.63
		c-0.03,0.16-0.2,0.35-0.49,0.59c-0.67,0.67-1.31,1.21-1.92,1.62c-0.55,0.31-1.01,0.49-1.38,0.54c-0.39,0-0.79-0.15-1.2-0.45
		c-0.36-0.31-0.66-0.66-0.91-1.05l-1.05-1.76l-0.14-0.3l-0.4-0.52l-0.19-0.23l-0.19-0.21l-0.38-0.33c-0.03-0.03-0.07-0.05-0.13-0.06
		s-0.11-0.02-0.18-0.04c-0.44,0.05-0.9,0.26-1.38,0.63c-0.64,0.5-1.23,1.02-1.78,1.57l-0.61,0.68l-0.63,0.66l-1.73,2.02
		c-0.45,0.61-0.85,1.06-1.2,1.36l-0.68,0.56l-0.47,0.49l-0.54,0.28l-0.7,0.09h-0.21h-0.19c-0.25,0-0.42-0.11-0.52-0.33
		c-0.13-0.2-0.19-0.48-0.19-0.82l0.05-0.68l0.19-0.61l1.15-4.03l0.42-1.59l0.21-1.15c0-0.11-0.04-0.3-0.12-0.59
		c-0.03-0.09-0.09-0.19-0.19-0.28l-0.09-0.05l-0.14-0.05c-0.19,0-0.45,0.16-0.77,0.49l-0.87,0.96l-0.47,0.56l-0.45,0.45l-1.34,1.1
		l-1.1,1.05l-0.14,0.14l-0.14,0.05l-0.14-0.19V31.3v-0.33l0.05-0.77c0.06-0.16,0.14-0.3,0.23-0.45l0.09-0.09l0.05-0.14l0.87-0.82
		l1.15-1.24l0.14-0.14l0.14-0.19l1.1-1.29l0.82-0.96l0.59-0.73l0.82-1.1l1.43-1.41c0.13-0.11,0.4-0.27,0.82-0.47
		c0.28-0.09,0.57-0.14,0.87-0.14h0.28l0.14,0.05l0.14,0.05c0.28,0.11,0.55,0.37,0.82,0.77c0.2,0.3,0.34,0.7,0.4,1.2l-0.07,0.28
		l-0.05,0.19l-1.97,6.45l-0.05,0.23l-0.05,0.23v0.28l0.05,0.35l0.16,0.19l0.14-0.05l0.23-0.09l0.09-0.09l0.14-0.09l0.09-0.09
		l2.46-3.02l0.47-0.54l0.59-0.59c0.41-0.41,0.93-0.84,1.57-1.29c0.17-0.13,0.41-0.25,0.73-0.38c0.36-0.16,0.71-0.23,1.05-0.23
		l0.63,0.09l0.66,0.33l0.45,0.47l0.47,0.68L98,26.58l0.09,0.14l0.91,2.55l0.09,0.19l0.12,0.14l0.33,0.63
		c0.13,0.17,0.3,0.28,0.52,0.33l0.82-0.14c0.36-0.09,0.74-0.4,1.15-0.91L102.19,29.47z"/>
	<path d="M110.19,37.44h-0.14l-0.33-0.05h-0.3c-0.25-0.08-0.62-0.27-1.1-0.56c-0.28-0.25-0.47-0.66-0.56-1.22
		c0-0.3-0.03-0.59-0.09-0.87l-0.05-0.94v-0.77l0.05-0.82l0.33-2.34c0.08-0.66,0.22-1.37,0.42-2.13l0.54-1.97l0.28-0.8l-1.01,1.1
		c-0.11,0.11-0.4,0.43-0.87,0.96c-0.44,0.5-0.84,0.9-1.2,1.2l-0.09,0.09l-0.09,0.09l-0.49,0.49l-0.38,0.38l-1.24,1.1l-0.82,0.73
		l-0.47,0.38l-0.54,0.49l-0.09,0.09l-0.14,0.05l-0.3-0.14l-0.23-0.45v-0.19l-0.05-0.19l0.05-0.23l0.05-0.45l0.14-0.28l0.26-0.28
		l0.33-0.4l1.48-1.29l1.01-0.96l0.26-0.23l0.23-0.3l1.01-1.29l1.55-2.16l0.38-0.68l0.47-0.7l0.54-0.96l0.52-0.96
		c0.34-0.53,0.68-1.16,1.01-1.88c0.17-0.34,0.33-0.66,0.47-0.94s0.3-0.63,0.49-1.03l0.82-1.87l-8.06,0.28
		c-0.27,0-0.51-0.14-0.73-0.42l-0.23-1.01v-0.35v-0.19v-0.28c0-0.41,0.07-0.74,0.22-1.01s0.39-0.42,0.74-0.47h9.94
		c0-0.44,0.15-0.83,0.45-1.17c0.23-0.33,0.59-0.52,1.05-0.56l0.28,0.05l0.28,0.14l0.4,0.47l0.14,0.59v0.19l-0.05,0.19
		c0.17,0,0.28,0.07,0.33,0.21l0.09,0.38v0.19v0.23v0.4l0.05,0.38v0.63l0.05,0.47c0,0.2-0.09,0.35-0.28,0.45l-0.63,0.14l-0.23,0.05
		h-0.19h-0.28l-0.16-0.05l-0.61,2.06l-1.2,4.45l-0.21,0.63l-0.14,0.63l-0.77,3.02l-0.52,2.58l-0.19,0.96l-0.09,0.96
		c0,0.45-0.03,0.84-0.09,1.15v1.01l0.05,1.1c0.05,0.3,0.13,0.46,0.23,0.49h0.19c0.42,0,0.98-0.3,1.69-0.91l3.02-2.79
		c0.03-0.03,0.06-0.05,0.09-0.05c0.06,0,0.11,0.02,0.14,0.05l0.09,0.4v0.23v0.28l0.05,0.19v0.35v0.19l-0.05,0.14l-0.09,0.38
		c-0.06,0.11-0.14,0.21-0.23,0.3l-1.01,1.05l-1.59,1.62l-0.56,0.59l-0.54,0.47l-1.48,1.17c-0.5,0.33-0.94,0.52-1.31,0.56H110.19z"/>
	<path d="M137.89,18.97c2.08-0.2,4.24-0.3,6.49-0.3l0.61-3.21l0.45-3.3l0.05-1.1l0.05-1.1V9.31l-0.05-0.68l-0.05-0.56l-0.05-0.68
		V7.34c0.03-0.06,0.05-0.12,0.06-0.16s0.02-0.1,0.04-0.16c0.02-0.02,0.04-0.06,0.07-0.13s0.07-0.14,0.11-0.22s0.07-0.14,0.11-0.19
		l1.05-1.34l1.15-1.1c0.39-0.34,0.83-0.63,1.31-0.87l0.14-0.05c0.03-0.03,0.06-0.05,0.09-0.05c0.16,0,0.28,0.14,0.38,0.42
		c0.09,0.34,0.14,0.86,0.14,1.55l-0.14,2.44l-0.28,2.88c-0.05,0.55-0.09,0.95-0.14,1.2c-0.09,0.52-0.17,0.87-0.23,1.05
		c-0.09,0.63-0.14,1.03-0.14,1.22c-0.02,0.05-0.04,0.13-0.08,0.26s-0.1,0.3-0.18,0.54l-5.51,23.91c0,0.23-0.12,0.42-0.35,0.55
		s-0.47,0.22-0.7,0.27l-0.14,0.05h-0.07c-0.23,0-0.45-0.17-0.66-0.52l-0.19-1.27V37.3v-0.28c0-0.27,0.03-0.49,0.09-0.68
		c0-0.17,0.03-0.37,0.09-0.59c0-0.28,0.03-0.52,0.09-0.7l0.05-0.35l2.25-13.85l-0.47,0.09h-0.45l-1.24,0.19l-1.1,0.14l-1.59,0.28
		l-1.71,0.4l-1.01,0.23l-1.01,0.28l-0.49,0.14l-0.47,0.14l-2.16,0.73l-0.77,0.23v6v0.3v0.23v0.19c0,0.47,0.05,0.82,0.14,1.05
		c0.05,0.19,0.17,0.28,0.38,0.28h0.14l0.21-0.09l0.19-0.14l0.09-0.14l0.14-0.09l0.87-0.82l0.68,0.49l-3.84,5.04l-0.19,0.14
		l-0.26,0.09h-0.05l-0.23,0.05l-0.14,0.05c-0.03,0.03-0.09,0.05-0.19,0.05c-0.12,0-0.22-0.06-0.3-0.19
		c-0.17-0.17-0.33-0.57-0.47-1.2l-0.49-3.84v-0.59c0-0.08-0.03-0.41-0.09-1.01l-0.05-1.43v-0.59v-0.56V26.3l0.09-0.73l-0.19-0.19
		l-0.47-0.63l-0.49-0.7l-0.28-0.82V23l0.05-0.19c0.05-0.36,0.16-0.65,0.33-0.87l0.4-0.68l0.52-0.63l0.23-0.28l1.58-12.38l0.05-0.45
		V7.15V6.97V6.24l0.14-0.68l0.09-0.19l0.21-0.28c0.2-0.3,0.45-0.55,0.74-0.77s0.66-0.41,1.11-0.59l0.3-0.05l0.28-0.05
		c0.4,0,0.76,0.12,1.05,0.35c0.33,0.23,0.54,0.63,0.63,1.2v0.14l-0.09,0.38l-0.12,0.35l-0.09,0.14l-0.19,0.33l-0.09,0.23
		l-2.25,12.91L137.89,18.97z"/>
	<path d="M167.89,32.89c-0.56,0.19-1.16,0.28-1.78,0.28c-0.88,0-1.72-0.24-2.53-0.71c-0.81-0.48-1.31-1.23-1.5-2.26
		c0-0.2-0.03-0.35-0.09-0.45l-0.09-0.33l-0.14-0.19l-0.14-0.33l-0.4,0.23l-0.8,0.52l-0.16,0.09l-0.09,0.12l-0.28,0.23l-0.23,0.19
		l-0.87,0.73l-0.77,0.75l-0.09,0.16l-0.09,0.09l-1.1,1.05c-0.11,0.11-0.31,0.27-0.59,0.47c-0.14,0.09-0.38,0.26-0.7,0.49l-0.4,0.23
		l-0.38,0.23l-0.14,0.09l-0.14,0.09l-0.73,0.49l-0.82,0.14l-0.63-0.09l-0.7-0.33c-0.2-0.16-0.38-0.46-0.54-0.91l-0.14-1.31v-0.91
		c0-0.28,0.03-0.55,0.09-0.8l-1.1,1.01c-0.03,0.09-0.14,0.17-0.33,0.23l-0.09-0.54v-0.14v-0.28v-0.14c0-0.34,0.08-0.7,0.23-1.05
		c0.13-0.27,0.34-0.55,0.66-0.87L150.5,29l0.23-0.26l0.23-0.23l0.28-0.28l2.04-1.97l2.39-2.25l0.52-0.49l0.59-0.47l4.58-3.84
		c1.38-1.09,2.21-1.69,2.49-1.78l0.68-0.14l0.92-0.05c0.45,0,0.87,0.05,1.24,0.14c0.36,0.16,0.57,0.46,0.63,0.91v0.05v0.05
		c-0.08,0.52-0.26,0.84-0.54,0.96l-0.92,0.23h-0.19l-0.54,0.05l-0.42,0.14l-0.45,0.4l-0.28,0.38l-0.09,0.09l-0.42,0.59l-0.59,0.42
		c-0.5,0.34-0.84,0.62-1.01,0.82l-0.87,0.96l-0.19,0.19l-0.14,0.21l-0.19,0.14l-0.09,0.14l-0.96,0.96l-1.01,1.05l-0.21,0.19
		l-0.14,0.19l-2.44,2.74c-0.31,0.34-0.52,0.66-0.63,0.96c-0.03,0.06-0.05,0.14-0.05,0.23c0,0.11,0.05,0.19,0.14,0.23l0.21,0.09
		l0.19,0.07l0.19,0.05l0.23-0.05l0.23-0.16l1.46-1.2l1.38-1.15l1.92-1.73l1.88-1.92l0.42-0.23l0.68-0.23h0.23l0.21-0.05l0.7,0.14
		c0.2,0.09,0.31,0.22,0.31,0.38c0,1.7,0.06,2.88,0.19,3.52c0.09,0.75,0.35,1.36,0.77,1.83l0.42,0.23l0.63,0.05l0.47-0.05l0.54-0.14
		c0.23-0.05,0.39-0.11,0.47-0.19l0.54-0.4c0.13-0.06,0.2-0.09,0.23-0.09c0.14,0,0.23,0.06,0.28,0.19c0.09,0.2,0.14,0.52,0.14,0.96
		v0.4l-0.09,0.28l-0.19,0.33l-0.38,0.4C169,32.33,168.5,32.64,167.89,32.89z"/>
	<path d="M191.96,29.47l0.09-0.05l0.19,0.09l0.09,0.19l0.05,0.21v0.28l0.05,0.19v0.19v0.19l-0.14,0.63
		c-0.03,0.16-0.2,0.35-0.49,0.59c-0.67,0.67-1.31,1.21-1.92,1.62c-0.55,0.31-1.01,0.49-1.38,0.54c-0.39,0-0.79-0.15-1.2-0.45
		c-0.36-0.31-0.66-0.66-0.91-1.05l-1.05-1.76l-0.14-0.3l-0.4-0.52l-0.19-0.23l-0.19-0.21l-0.38-0.33c-0.03-0.03-0.07-0.05-0.13-0.06
		s-0.11-0.02-0.18-0.04c-0.44,0.05-0.9,0.26-1.38,0.63c-0.64,0.5-1.23,1.02-1.78,1.57l-0.61,0.68l-0.63,0.66l-1.73,2.02
		c-0.45,0.61-0.85,1.06-1.2,1.36l-0.68,0.56l-0.47,0.49l-0.54,0.28l-0.7,0.09h-0.21h-0.19c-0.25,0-0.42-0.11-0.52-0.33
		c-0.13-0.2-0.19-0.48-0.19-0.82l0.05-0.68l0.19-0.61l1.15-4.03l0.42-1.59l0.21-1.15c0-0.11-0.04-0.3-0.12-0.59
		c-0.03-0.09-0.09-0.19-0.19-0.28l-0.09-0.05l-0.14-0.05c-0.19,0-0.45,0.16-0.77,0.49l-0.87,0.96l-0.47,0.56l-0.45,0.45l-1.34,1.1
		l-1.1,1.05l-0.14,0.14l-0.14,0.05l-0.14-0.19V31.3v-0.33l0.05-0.77c0.06-0.16,0.14-0.3,0.23-0.45l0.09-0.09l0.05-0.14l0.87-0.82
		l1.15-1.24l0.14-0.14l0.14-0.19l1.1-1.29l0.82-0.96l0.59-0.73l0.82-1.1l1.43-1.41c0.13-0.11,0.4-0.27,0.82-0.47
		c0.28-0.09,0.57-0.14,0.87-0.14h0.28l0.14,0.05l0.14,0.05c0.28,0.11,0.55,0.37,0.82,0.77c0.2,0.3,0.34,0.7,0.4,1.2l-0.07,0.28
		l-0.05,0.19l-1.97,6.45l-0.05,0.23l-0.05,0.23v0.28l0.05,0.35l0.16,0.19l0.14-0.05l0.23-0.09l0.09-0.09l0.14-0.09l0.09-0.09
		l2.46-3.02l0.47-0.54l0.59-0.59c0.41-0.41,0.93-0.84,1.57-1.29c0.17-0.13,0.41-0.25,0.73-0.38c0.36-0.16,0.71-0.23,1.05-0.23
		l0.63,0.09l0.66,0.33l0.45,0.47l0.47,0.68l0.05,0.19l0.09,0.14l0.91,2.55l0.09,0.19l0.12,0.14l0.33,0.63
		c0.13,0.17,0.3,0.28,0.52,0.33l0.82-0.14c0.36-0.09,0.74-0.4,1.15-0.91L191.96,29.47z"/>
	<path d="M211.48,32.89c-0.38,0.13-0.62,0.2-0.73,0.23c-0.3,0.13-0.65,0.22-1.05,0.28l-0.49,0.05h-0.47h-0.14h-0.19
		c-0.81,0-1.54-0.27-2.18-0.82c-0.42-0.42-0.84-0.95-1.24-1.57l-0.66-1.45l-0.26-0.91l-0.05-0.23l-0.09-0.23l-0.09-0.23l-0.19-0.54
		l-0.05-0.33l-0.4,0.42l-0.42,0.54l-0.09,0.09l-0.19,0.19l-0.09,0.14l-0.49,0.63l-0.33,0.52l-0.63,0.91l-1.01,1.2l-0.14,0.16
		l-0.09,0.14l-1.1,1.15l-1.05,1.05c-0.58,0.53-1.28,1.06-2.11,1.59c-0.75,0.44-1.42,0.66-2.02,0.66h-0.09h-0.16
		c-0.5-0.05-0.82-0.22-0.96-0.52c-0.17-0.31-0.28-0.7-0.33-1.15v-0.21l0.05-0.23l0.05-0.42c0.05-0.28,0.08-0.43,0.09-0.45l0.73-2.39
		l-1.01,0.82c-0.03,0.03-0.08,0.05-0.14,0.05s-0.13,0.02-0.19,0.05c-0.09-0.09-0.14-0.24-0.14-0.45v-0.28l0.05-0.28
		c0-0.45,0.11-0.84,0.33-1.15l0.73-0.91l0.33-0.35l0.38-0.38l0.14-0.14l0.96-1.01l1.64-1.73l0.14-0.09l1.1-1.15l0.96-0.96
		c1.3-1.22,2.76-2.45,4.38-3.7c1.2-0.86,1.97-1.35,2.3-1.48l0.73-2.32l1.05-2.98l0.28-0.7l0.33-0.73l0.59-1.2l0.59-1.31l1.2-2.3
		c0.33-0.72,0.74-1.31,1.24-1.78l0.47-0.33l0.49-0.14h0.19l0.23,0.09c0.17,0.06,0.3,0.19,0.4,0.39s0.14,0.42,0.14,0.67l-0.14,0.96
		l-0.19,0.96l-0.21,0.59c0,0.19-0.03,0.38-0.09,0.56l-0.14,0.59l-0.09,0.38l-0.28,0.77l-0.45,1.15l-0.87,2.7l-1.1,2.98l-0.28,0.7
		l-0.28,0.73l-0.09,0.14l-0.77,1.83l-0.33,0.73l-0.05,0.28l-0.12,0.68l-0.14,1.15l-0.05,1.38v0.54l0.05,0.47
		c0,0.38,0.03,0.8,0.09,1.27l0.3,1.15c0.09,0.39,0.27,0.76,0.52,1.1l0.77,0.82l0.47,0.38l0.49,0.23l0.19,0.09l0.23,0.05l0.21,0.05
		h0.19c0.33,0,0.7-0.09,1.1-0.28l1.05-0.73l0.14-0.14l0.14-0.09l0.23-0.14l0.16-0.09l0.19,0.09l0.09,0.45l-0.05,0.47
		c0,0.17-0.03,0.37-0.09,0.59l-0.26,0.61l-0.28,0.49C212.73,32.21,212.23,32.51,211.48,32.89z M203.7,21.12
		c-0.44,0.2-1.06,0.81-1.88,1.83l-2.65,3.4l-0.28,0.38l-0.28,0.4l-0.49,0.73l-0.42,0.66l-1.2,2.11c-0.3,0.72-0.46,1.2-0.49,1.45
		l0.05,0.23l0.14,0.05h0.05h0.07c0.41-0.06,0.9-0.38,1.48-0.96c0.55-0.48,1.22-1.2,2.02-2.16l0.59-0.77l0.56-0.77l1.88-2.58
		l1.05-1.78L203.7,21.12z"/>
	<path d="M214.83,27.8l0.87-0.82l0.09-0.09l0.14-0.16l0.09-0.09l0.09-0.09l0.28-0.28l0.35-0.38l0.14-0.16l0.91-0.89
		c0.2-0.17,0.43-0.26,0.68-0.26h0.19c0.61,0.19,0.99,0.41,1.15,0.68c0.19,0.19,0.33,0.52,0.42,1.01l0.68,3.75
		c0.09,0.5,0.27,0.93,0.52,1.29c0.3,0.38,0.66,0.6,1.08,0.68h0.05l0.7-0.14c0.38-0.13,0.66-0.29,0.87-0.49l0.45-0.28l0.47-0.4
		l0.77-0.66l0.52-0.49l0.16-0.05l0.09-0.05l0.19,0.14l0.14,0.3v0.23l0.05,0.23v0.33v0.26l-0.05,0.19c-0.05,0.23-0.11,0.39-0.19,0.47
		l-0.4,0.4l-0.66,0.66l-1.01,0.82l-0.73,0.54l-0.77,0.47l-1.29,0.63l-1.05,0.23h-0.09c-0.58,0-1.11-0.2-1.59-0.59
		c-0.36-0.36-0.71-0.82-1.05-1.38l-1.57-2.98l-0.35-0.38c-0.09-0.09-0.22-0.14-0.38-0.14l-0.54,0.14l-0.56,0.33l-0.4,0.33
		l-0.38,0.35l-0.54,0.56l-0.42,0.4c-0.06,0.06-0.16,0.09-0.28,0.09l-0.19-0.49l-0.07-0.23v-0.19c0-0.5,0.12-0.91,0.35-1.24
		c0.14-0.27,0.41-0.59,0.82-0.96l0.23-0.26l0.28-0.23l0.14-0.14L214.83,27.8z M217.37,16.55l-0.14-0.82v-0.19l0.05-0.19l0.21-0.52
		c0.06-0.14,0.19-0.3,0.38-0.49l1.88-1.97l0.19-0.19l0.23-0.19l0.63-0.4l0.66-0.28h0.26l0.19-0.05l0.33,0.05l0.4,0.09l0.33,0.28
		c0.09,0.11,0.14,0.24,0.14,0.4l-0.05,0.19v0.19l-0.09,0.19l-0.05,0.21l-1.1,2.98l-0.28,0.28l-0.54,0.42l-0.68,0.35l-0.7,0.28
		l-0.49,0.14l-0.47,0.05l-0.45-0.05l-0.33-0.14C217.69,17.06,217.52,16.85,217.37,16.55z"/>
	<path d="M242.75,30.43c0,0.61-0.19,1.14-0.56,1.59c-0.61,0.58-1.09,0.98-1.45,1.2l-0.28,0.19l-0.23,0.14l-0.73,0.45l-0.68,0.38
		c-0.84,0.48-1.81,0.97-2.91,1.45c-0.61,0.19-1.08,0.31-1.41,0.38c-0.52,0.14-1.05,0.23-1.62,0.28l-0.54-0.05l-0.54-0.05l-1.05-0.28
		l-1.05-0.59l-0.23-0.14l-0.19-0.09l-0.28-0.19l-0.3-0.28l-0.23-0.45l-0.33-0.63l-0.19-0.56c0-0.38-0.04-0.66-0.12-0.87
		c0-0.33-0.03-0.65-0.09-0.96c0-0.3-0.03-0.49-0.09-0.59l-1.29,1.22l-0.14,0.14c-0.17,0-0.3-0.03-0.4-0.09
		c-0.06-0.03-0.13-0.24-0.19-0.63v-0.23c0-0.53,0.21-1.03,0.63-1.5l1.15-1.15l0.23-0.19l0.3-0.23l0.19-0.14l2.02-1.78
		c0.92-0.88,2.22-1.9,3.89-3.07c1.05-0.8,2.29-1.6,3.73-2.41c1.19-0.55,2.02-0.85,2.51-0.91l0.33,0.12l0.09,0.19l0.09,1.2
		c0,0.34-0.05,0.64-0.14,0.88s-0.3,0.53-0.61,0.86l-0.63,0.52l-0.73,0.4l-0.38,0.19l-0.38,0.19l-0.73,0.47
		c-0.19,0.13-0.34,0.29-0.45,0.49l-0.84,0.63l-1.64,1.01c-0.61,0.41-1.2,0.96-1.78,1.66c-0.25,0.36-0.44,0.7-0.56,1.01
		c-0.14,0.3-0.21,0.75-0.21,1.36l0.05,0.23v0.23c0,0.8,0.21,1.38,0.63,1.73c0.44,0.34,0.91,0.52,1.43,0.52l0.73-0.05l0.73-0.14
		l0.87-0.19l0.87-0.33c0.89-0.39,1.64-0.8,2.25-1.22l2.06-1.48l0.42-0.33l0.45-0.4c0.14-0.09,0.25-0.14,0.33-0.14
		c0.03,0,0.08,0.03,0.14,0.09l0.09,0.63v0.19V30.43z"/>
	<path d="M242.77,28.95l0.66-0.59l1.92-2.16c0.47-0.63,0.88-1.49,1.24-2.6v-0.14v-0.19l-0.05-0.19v-0.14l-0.09-0.21v-0.23v-0.19
		l0.05-0.19l0.3-0.45l0.66-0.52l0.82-0.49l0.87-0.42l0.52-0.19l0.49-0.19h0.05h0.05c0.19,0,0.59,0.14,1.2,0.42l1.92,1.1
		c0.42,0.3,1.08,0.89,1.97,1.78c0.59,0.59,0.99,1.28,1.2,2.06l0.05,0.23v0.23l-0.14,1.36l-0.33,1.48l-0.19,0.49l-0.09,0.47
		l-0.54,1.78l-0.23,1.15v0.19l0.09,0.09c0.06-0.03,0.13-0.05,0.19-0.06s0.13-0.02,0.19-0.04c0.22-0.08,0.4-0.16,0.54-0.23l1.48-1.01
		l0.3-0.23l0.28-0.23l0.96-0.82l0.73-0.68c0.03-0.03,0.06-0.05,0.09-0.05c0.09,0,0.16,0.02,0.19,0.05c0.09,0.14,0.14,0.3,0.14,0.49
		v0.09v0.09l-0.05,0.19c0,0.72-0.14,1.28-0.42,1.69c-0.44,0.53-0.91,0.96-1.41,1.29l-0.28,0.19l-0.23,0.19l-0.21,0.16l-0.14,0.09
		l-0.75,0.56l-0.77,0.49c-0.81,0.53-1.5,0.91-2.06,1.15c-0.69,0.31-1.25,0.47-1.69,0.47h-0.14l-0.14-0.05
		c-0.39-0.09-0.68-0.23-0.87-0.42c-0.11-0.16-0.19-0.43-0.23-0.82l0.09-0.63l0.19-0.7l1.29-3.66l0.09-0.38l0.09-0.4l0.05-0.38v-0.4
		c0-0.98-0.25-1.88-0.75-2.67c-0.55-0.78-1.35-1.31-2.41-1.59l-0.38,0.49l-0.91,1.01l-0.09,0.09l-0.45,0.52l-0.33,0.35l-2.74,2.81
		l-2.39,2.23c-0.03,0.03-0.08,0.05-0.14,0.05s-0.13-0.03-0.19-0.09l-0.21-0.68v-0.28c0-0.38,0.07-0.68,0.21-0.91l0.33-0.54
		L242.77,28.95z"/>
	<path d="M277.9,32.89c-0.56,0.19-1.16,0.28-1.78,0.28c-0.88,0-1.72-0.24-2.54-0.71c-0.81-0.48-1.31-1.23-1.5-2.26
		c0-0.2-0.03-0.35-0.09-0.45l-0.09-0.33l-0.14-0.19l-0.14-0.33l-0.4,0.23l-0.8,0.52l-0.16,0.09l-0.09,0.12l-0.28,0.23l-0.23,0.19
		l-0.87,0.73L268,31.76l-0.09,0.16l-0.09,0.09l-1.1,1.05c-0.11,0.11-0.31,0.27-0.59,0.47c-0.14,0.09-0.38,0.26-0.7,0.49l-0.4,0.23
		l-0.38,0.23l-0.14,0.09l-0.14,0.09l-0.73,0.49l-0.82,0.14l-0.63-0.09l-0.7-0.33c-0.2-0.16-0.38-0.46-0.54-0.91l-0.14-1.31v-0.91
		c0-0.28,0.03-0.55,0.09-0.8l-1.1,1.01c-0.03,0.09-0.14,0.17-0.33,0.23l-0.09-0.54v-0.14v-0.28v-0.14c0-0.34,0.08-0.7,0.23-1.05
		c0.13-0.27,0.34-0.55,0.66-0.87l0.26-0.19l0.23-0.26l0.23-0.23l0.28-0.28l2.04-1.97l2.39-2.25l0.52-0.49l0.59-0.47l4.58-3.84
		c1.38-1.09,2.21-1.69,2.49-1.78l0.68-0.14l0.92-0.05c0.45,0,0.87,0.05,1.24,0.14c0.36,0.16,0.57,0.46,0.63,0.91v0.05v0.05
		c-0.08,0.52-0.26,0.84-0.54,0.96l-0.92,0.23h-0.19l-0.54,0.05l-0.42,0.14l-0.45,0.4l-0.28,0.38l-0.09,0.09l-0.42,0.59l-0.59,0.42
		c-0.5,0.34-0.84,0.62-1.01,0.82l-0.87,0.96l-0.19,0.19l-0.14,0.21l-0.19,0.14l-0.09,0.14l-0.96,0.96l-1.01,1.05l-0.21,0.19
		l-0.14,0.19l-2.44,2.74c-0.31,0.34-0.52,0.66-0.63,0.96c-0.03,0.06-0.05,0.14-0.05,0.23c0,0.11,0.05,0.19,0.14,0.23l0.21,0.09
		l0.19,0.07l0.19,0.05l0.23-0.05l0.23-0.16l1.46-1.2l1.38-1.15l1.92-1.73l1.88-1.92l0.42-0.23l0.68-0.23h0.23l0.21-0.05l0.7,0.14
		c0.2,0.09,0.31,0.22,0.31,0.38c0,1.7,0.06,2.88,0.19,3.52c0.09,0.75,0.35,1.36,0.77,1.83l0.42,0.23l0.63,0.05l0.47-0.05l0.54-0.14
		c0.23-0.05,0.39-0.11,0.47-0.19l0.54-0.4c0.13-0.06,0.2-0.09,0.24-0.09c0.14,0,0.23,0.06,0.28,0.19c0.09,0.2,0.14,0.52,0.14,0.96
		v0.4l-0.09,0.28l-0.19,0.33l-0.38,0.4C279.01,32.33,278.51,32.64,277.9,32.89z"/>
	<path d="M278.77,31.44v-0.09c0-0.59,0.16-1.14,0.49-1.64c0.27-0.39,0.63-0.84,1.1-1.34l0.73-0.82l0.56-0.91l0.14-0.42l0.16-0.28
		v-0.09l0.14-0.3l0.23-0.47l0.59-2.37c0.34-1.28,0.77-2.63,1.29-4.03c0.03-0.09,0.06-0.19,0.08-0.28s0.04-0.19,0.06-0.28
		c0.09-0.3,0.17-0.49,0.23-0.59l0.45-1.1l0.61-1.57l0.68-1.64l0.33-0.82l0.35-0.77l1.76-3.77c0.61-1.05,1.03-1.66,1.27-1.83
		c0.31-0.19,0.68-0.32,1.1-0.4l1.24-0.09c0.13,0.13,0.19,0.24,0.19,0.35l0.09,0.89c0,0.75-0.09,1.78-0.28,3.09
		c-0.05,0.61-0.14,1.21-0.28,1.8c-0.14,0.64-0.3,1.33-0.49,2.06l-0.52,1.83l-0.63,1.78l-0.82,2.06l-0.91,1.92
		c-0.69,1.48-1.45,2.84-2.3,4.08l-1.01,1.55l-0.28,1.48l-0.68,3.35l-0.14,1.01l-0.19,1.03l-0.3,1.9l-0.19,1.73l-0.14,1.29v0.54
		c0,0.11-0.03,0.41-0.09,0.91l-0.05,0.73v0.7l0.14,2.98c0.05,0.41,0.13,0.7,0.23,0.87c0.05,0.13,0.12,0.19,0.21,0.19
		c0.03,0,0.06-0.02,0.09-0.05l0.7-0.87l1.01-1.62l0.45-0.82l0.42-0.87l0.14-0.38l0.14-0.3l0.73-1.71l0.63-1.45l0.05-0.09l0.68-1.66
		l0.96-2.09l0.38-0.8l0.42-0.91l0.77-1.45c0.23-0.36,0.54-0.71,0.91-1.05c0.09-0.09,0.19-0.14,0.28-0.14s0.16,0.02,0.19,0.05
		l0.26,0.54v0.19l0.05,0.14l-0.05,0.59c-0.05,0.23-0.11,0.39-0.19,0.47l-0.26,0.33l-0.28,0.3c-0.13,0.13-0.45,0.95-0.96,2.48
		c-0.17,0.7-0.43,1.57-0.77,2.6c-0.17,0.63-0.62,1.82-1.34,3.59l-0.77,1.88l-1.01,2.11c-0.34,0.8-0.82,1.66-1.43,2.6
		c-0.13,0.19-0.26,0.39-0.4,0.61s-0.25,0.38-0.33,0.49c-0.23,0.33-0.51,0.65-0.82,0.96l-1.05,0.87c-0.2,0.17-0.52,0.28-0.96,0.33
		h-0.14c-0.77,0-1.33-0.32-1.69-0.96c-0.31-0.58-0.47-1.25-0.47-2.02v-0.28v-0.19v-0.77v-0.59l-0.09-0.66l-0.05-1.73v-0.42v-0.45
		v-0.91c0-0.11,0.03-0.46,0.09-1.05l0.19-2.16l0.87-8.02l-1.88,1.69c-0.08,0.13-0.16,0.19-0.23,0.19c-0.06,0.03-0.13,0.05-0.19,0.05
		l-0.21-0.45v-0.19V31.44z M290.16,13.88l0.14-1.13l-0.63,0.87l-1.2,2.51l-0.87,2.63l-0.23,1.01l0.59-0.84
		c0.38-0.52,0.84-1.41,1.38-2.7C289.78,15.29,290.05,14.51,290.16,13.88z"/>
	<path d="M300.52,37.44h-0.14l-0.33-0.05h-0.3c-0.25-0.08-0.62-0.27-1.1-0.56c-0.28-0.25-0.47-0.66-0.56-1.22
		c0-0.3-0.03-0.59-0.09-0.87l-0.05-0.94v-0.77l0.05-0.82l0.33-2.34c0.08-0.66,0.22-1.37,0.42-2.13l0.54-1.97l0.28-0.8l-1.01,1.1
		c-0.11,0.11-0.4,0.43-0.87,0.96c-0.44,0.5-0.84,0.9-1.2,1.2l-0.09,0.09l-0.09,0.09l-0.49,0.49l-0.38,0.38l-1.24,1.1l-0.82,0.73
		l-0.47,0.38l-0.54,0.49l-0.09,0.09l-0.14,0.05l-0.3-0.14l-0.23-0.45v-0.19l-0.05-0.19l0.05-0.23l0.05-0.45l0.14-0.28l0.26-0.28
		l0.33-0.4l1.48-1.29l1.01-0.96l0.26-0.23l0.23-0.3l1.01-1.29l1.55-2.16l0.38-0.68l0.47-0.7l0.54-0.96l0.52-0.96
		c0.34-0.53,0.68-1.16,1.01-1.88c0.17-0.34,0.33-0.66,0.47-0.94s0.3-0.63,0.49-1.03l0.82-1.87l-8.06,0.28
		c-0.27,0-0.51-0.14-0.73-0.42l-0.23-1.01v-0.35v-0.19v-0.28c0-0.41,0.07-0.74,0.22-1.01s0.39-0.42,0.74-0.47h9.94
		c0-0.44,0.15-0.83,0.45-1.17c0.23-0.33,0.59-0.52,1.05-0.56l0.28,0.05l0.28,0.14l0.4,0.47l0.14,0.59v0.19l-0.05,0.19
		c0.17,0,0.28,0.07,0.33,0.21l0.09,0.38v0.19v0.23v0.4l0.05,0.38v0.63l0.05,0.47c0,0.2-0.09,0.35-0.28,0.45l-0.63,0.14l-0.23,0.05
		h-0.19h-0.28l-0.16-0.05l-0.61,2.06l-1.2,4.45l-0.21,0.63l-0.14,0.63l-0.77,3.02l-0.52,2.58l-0.19,0.96l-0.09,0.96
		c0,0.45-0.03,0.84-0.09,1.15v1.01l0.05,1.1c0.05,0.3,0.13,0.46,0.23,0.49h0.19c0.42,0,0.98-0.3,1.69-0.91l3.02-2.79
		c0.03-0.03,0.06-0.05,0.09-0.05c0.06,0,0.11,0.02,0.14,0.05l0.09,0.4v0.23v0.28l0.05,0.19v0.35v0.19l-0.05,0.14l-0.09,0.38
		c-0.06,0.11-0.14,0.21-0.23,0.3l-1.01,1.05l-1.59,1.62l-0.56,0.59l-0.54,0.47l-1.48,1.17c-0.5,0.33-0.94,0.52-1.31,0.56H300.52z"/>
	<path d="M316.36,20.94l0.3-0.4l0.24-0.23l0.19-0.23c0.2-0.3,0.52-0.62,0.96-0.96c0.39-0.3,0.81-0.45,1.24-0.45
		c0.86,0,1.46,0.26,1.78,0.77c0.28,0.53,0.42,1.13,0.42,1.78l-0.05,0.91L321.31,23c0,0.19-0.03,0.38-0.09,0.56l-0.09,0.49
		l-0.14,0.52l-0.09,0.49l-0.14,0.52l-0.09,0.49c-0.06,0.33-0.15,0.62-0.26,0.87l-0.23,0.75l-0.73,2.13
		c-0.19,0.61-0.28,1.12-0.28,1.52l0.05,0.33c0.05,0.14,0.11,0.21,0.19,0.21h0.09l0.05,0.05c0.2,0,0.43-0.09,0.68-0.26l0.87-0.66
		l0.23-0.19l0.23-0.21l0.68-0.61l0.54-0.49c0.03-0.03,0.11-0.05,0.23-0.05h0.14l0.14,0.35v0.05l0.05,0.14v0.09v0.09
		c0,0.73-0.27,1.42-0.82,2.06c-0.49,0.59-1.09,1.07-1.81,1.43l-0.4,0.16l-0.33,0.09l-0.54,0.61l-1.29,1.27l-0.63,0.47l-0.61,0.47
		l-1.1,0.63c-0.27,0.13-0.57,0.2-0.92,0.23h-0.05h-0.05c-0.11-0.03-0.21-0.09-0.31-0.19l-0.28-0.47l-0.47-1.41l-0.4-1.71l-0.05-0.54
		v-0.59v-0.28v-0.28c0.05-0.42,0.18-0.77,0.4-1.05c0.22-0.33,0.52-0.54,0.89-0.63l0.21-0.05l0.52,0.09l0.28,0.14l0.31,0.26
		l0.23-0.05l0.19-0.26l0.05-0.33v-0.28l0.3-4.62c0-0.33-0.12-0.55-0.35-0.68c-0.03-0.03-0.09-0.05-0.19-0.05
		c-0.19,0-0.34,0.05-0.47,0.16l-0.31,0.14l-0.23,0.14l-0.19,0.19l-0.14,0.09l-0.59,0.49l-0.52,0.52l-3.8,3.21l-2.79,2.37l-0.28,0.09
		l-0.19-0.4v-0.19l0.05-0.19v-0.38l0.05-0.49l0.14-0.52l0.24-0.4l2.93-2.63l4.51-4.24l0.12-0.09l0.14-0.14l0.61-0.56l0.63-0.59
		L316.36,20.94z"/>
	<path d="M353.16,31.06l0.05,0.19l0.05,0.19c0,0.31-0.12,0.62-0.35,0.91l-0.8,0.96c-0.49,0.38-1.21,0.88-2.18,1.5
		c-0.78,0.47-1.64,0.87-2.58,1.2l-1.59,0.38l-1.48,0.14h-0.19h-0.21c-1.89,0-3.47-0.29-4.74-0.87c-1.34-0.55-2.41-1.36-3.19-2.44
		c-1.42-2.03-2.25-4.26-2.49-6.68l-0.09-1.29l-0.05-1.34v-0.35v-0.33c0-2.03,0.35-4,1.06-5.91c0.64-1.89,1.65-3.78,3.03-5.67
		c2.58-3.64,5.43-6.15,8.54-7.52l0.82-0.33c0.33-0.13,0.78-0.24,1.36-0.35c0.74-0.16,1.37-0.23,1.9-0.23h0.17h0.09
		c0.61,0,1.15,0.08,1.62,0.23c0.22,0.06,0.49,0.18,0.82,0.35c0.09,0.03,0.29,0.16,0.59,0.37l0.75,0.56l0.26,0.35
		c0.08,0.19,0.17,0.49,0.28,0.91c0.03,0.14,0.07,0.33,0.11,0.56c0.04,0.23,0.08,0.48,0.13,0.73l0.14,2.34v0.49v0.42
		c0,0.61-0.05,1.27-0.14,1.97c-0.11,0.91-0.22,1.56-0.33,1.97c-0.14,0.58-0.29,1.17-0.45,1.78c-0.08,0.36-0.25,0.98-0.52,1.88
		c-0.28,1.05-0.59,1.88-0.92,2.48c-0.06,0.16-0.11,0.28-0.15,0.36s-0.07,0.16-0.08,0.22c-0.13,0.19-0.2,0.33-0.23,0.42l-0.68,0.3
		l-0.59,0.23l-0.7,0.19l-0.87,0.05c-0.16-0.16-0.26-0.28-0.31-0.38l-0.09-1.01l0.17-2.2c0.03-0.34,0.08-0.7,0.14-1.08
		c0.08-0.47,0.19-0.99,0.33-1.57l0.42-1.92l0.59-1.78l0.28-0.61l0.49-0.63l0.09-0.09l0.09-0.14l0.47-0.68l0.21-0.82V9.31l-0.05-0.19
		c-0.13-0.8-0.5-1.36-1.13-1.69c-0.63-0.34-1.35-0.62-2.16-0.82l-0.28-0.05l-0.28-0.05h-0.19c-2.24,0-4.19,1.09-5.87,3.28
		c-1.71,2.17-2.99,4.6-3.85,7.29c-0.2,0.77-0.34,1.27-0.4,1.52c-0.16,0.59-0.25,1.02-0.28,1.27c-0.16,1.13-0.24,2-0.24,2.63v0.19
		v0.35c0,1.31,0.17,2.61,0.52,3.89c0.39,1.39,0.86,2.54,1.41,3.45c1.09,1.95,2.92,3.07,5.47,3.35l0.35,0.07h0.38
		c0.88,0,1.74-0.15,2.6-0.45c0.88-0.31,1.61-0.66,2.21-1.05l1.53-1.01c0.42-0.27,0.74-0.42,0.96-0.47l0.14,0.05L353.16,31.06z"/>
	<path d="M363.33,35.37c-1.41,0.55-2.54,0.82-3.4,0.82h-0.16c-1.31,0-2.4-0.5-3.26-1.5c-0.83-1.11-1.24-2.32-1.24-3.63v-0.3
		c0-1.63,0.29-3.14,0.87-4.55c0.33-0.86,0.63-1.5,0.91-1.92c0.41-0.66,0.76-1.17,1.05-1.55l0.14-0.14l1.59-1.62
		c0.16-0.14,0.42-0.34,0.8-0.59c0.28-0.2,0.59-0.38,0.91-0.52l0.87-0.35l0.87-0.09l0.87,0.14l0.82,0.4
		c0.22,0.17,0.39,0.38,0.52,0.61l0.19,0.87c0,0.45-0.13,1.02-0.38,1.69c-0.08,0.2-0.22,0.49-0.42,0.87
		c-0.06,0.11-0.17,0.27-0.33,0.49s-0.27,0.39-0.35,0.52l-0.68,0.87l-0.82,0.84l-0.23,0.26l-0.23,0.19l-0.54,0.47l-0.52,0.4
		l-1.55,1.05l-0.75,0.42v0.23l-0.05,0.26v0.23v0.47l0.09,0.49c0.09,0.39,0.33,0.77,0.7,1.15c0.38,0.3,0.94,0.49,1.69,0.59h0.19h0.19
		h0.21h0.19c0.69,0,1.42-0.21,2.2-0.63l1.97-1.2l1.15-0.91l0.77-0.68c0.08-0.13,0.17-0.19,0.28-0.19c0.03,0,0.06,0.02,0.09,0.05
		l0.3,0.33v0.21l0.05,0.19l0.05,0.23c0,0.41-0.07,0.71-0.21,0.91l-0.56,0.73C366.34,33.69,364.73,34.83,363.33,35.37z M361.13,25.67
		l0.33-0.42l0.23-0.38c0.19-0.22,0.3-0.49,0.35-0.82c0-0.23-0.12-0.41-0.35-0.54l-0.09-0.05h-0.14c-0.19,0.03-0.33,0.09-0.42,0.19
		l-0.4,0.4l-0.19,0.23l-0.09,0.19l-0.14,0.14l-0.09,0.14l-0.09,0.12l-1.05,1.29c-0.14,0.19-0.21,0.36-0.21,0.52
		c0,0.08,0.04,0.2,0.12,0.35c0.06,0.06,0.14,0.09,0.23,0.09c0.17,0,0.38-0.09,0.61-0.28l1.31-1.08L361.13,25.67z"/>
	<path d="M390.76,29.47l0.09-0.05l0.19,0.09l0.09,0.19l0.05,0.21v0.28l0.05,0.19v0.19v0.19l-0.14,0.63
		c-0.03,0.16-0.2,0.35-0.49,0.59c-0.67,0.67-1.31,1.21-1.92,1.62c-0.55,0.31-1.01,0.49-1.38,0.54c-0.39,0-0.79-0.15-1.2-0.45
		c-0.36-0.31-0.66-0.66-0.91-1.05l-1.05-1.76l-0.14-0.3l-0.4-0.52l-0.19-0.23l-0.19-0.21l-0.38-0.33c-0.03-0.03-0.07-0.05-0.13-0.06
		s-0.11-0.02-0.18-0.04c-0.44,0.05-0.9,0.26-1.38,0.63c-0.64,0.5-1.23,1.02-1.78,1.57l-0.61,0.68l-0.63,0.66l-1.73,2.02
		c-0.45,0.61-0.85,1.06-1.2,1.36l-0.68,0.56l-0.47,0.49l-0.54,0.28l-0.7,0.09h-0.21h-0.19c-0.25,0-0.42-0.11-0.52-0.33
		c-0.13-0.2-0.19-0.48-0.19-0.82l0.05-0.68l0.19-0.61l1.15-4.03l0.42-1.59l0.21-1.15c0-0.11-0.04-0.3-0.12-0.59
		c-0.03-0.09-0.09-0.19-0.19-0.28l-0.09-0.05l-0.14-0.05c-0.19,0-0.45,0.16-0.77,0.49l-0.87,0.96l-0.47,0.56l-0.45,0.45l-1.34,1.1
		l-1.1,1.05l-0.14,0.14l-0.14,0.05l-0.14-0.19V31.3v-0.33l0.05-0.77c0.06-0.16,0.14-0.3,0.23-0.45l0.09-0.09l0.05-0.14l0.87-0.82
		l1.15-1.24l0.14-0.14l0.14-0.19l1.1-1.29l0.82-0.96l0.59-0.73l0.82-1.1l1.43-1.41c0.13-0.11,0.4-0.27,0.82-0.47
		c0.28-0.09,0.57-0.14,0.87-0.14h0.28l0.14,0.05l0.14,0.05c0.28,0.11,0.55,0.37,0.82,0.77c0.2,0.3,0.34,0.7,0.4,1.2l-0.07,0.28
		l-0.05,0.19l-1.97,6.45l-0.05,0.23l-0.05,0.23v0.28l0.05,0.35l0.16,0.19l0.14-0.05l0.23-0.09l0.09-0.09l0.14-0.09l0.09-0.09
		l2.46-3.02l0.47-0.54l0.59-0.59c0.41-0.41,0.93-0.84,1.57-1.29c0.17-0.13,0.41-0.25,0.73-0.38c0.36-0.16,0.71-0.23,1.05-0.23
		l0.63,0.09l0.66,0.33l0.45,0.47l0.47,0.68l0.05,0.19l0.09,0.14l0.91,2.55l0.09,0.19l0.12,0.14l0.33,0.63
		c0.13,0.17,0.3,0.28,0.52,0.33l0.82-0.14c0.36-0.09,0.74-0.4,1.15-0.91L390.76,29.47z"/>
	<path d="M398.75,37.44h-0.14l-0.33-0.05h-0.3c-0.25-0.08-0.62-0.27-1.1-0.56c-0.28-0.25-0.47-0.66-0.56-1.22
		c0-0.3-0.03-0.59-0.09-0.87l-0.05-0.94v-0.77l0.05-0.82l0.33-2.34c0.08-0.66,0.22-1.37,0.42-2.13l0.54-1.97l0.28-0.8l-1.01,1.1
		c-0.11,0.11-0.4,0.43-0.87,0.96c-0.44,0.5-0.84,0.9-1.2,1.2l-0.09,0.09l-0.09,0.09l-0.49,0.49l-0.38,0.38l-1.24,1.1l-0.82,0.73
		l-0.47,0.38l-0.54,0.49l-0.09,0.09l-0.14,0.05l-0.3-0.14l-0.23-0.45v-0.19l-0.05-0.19l0.05-0.23l0.05-0.45l0.14-0.28l0.26-0.28
		l0.33-0.4l1.48-1.29l1.01-0.96l0.26-0.23l0.23-0.3l1.01-1.29l1.55-2.16l0.38-0.68l0.47-0.7l0.54-0.96l0.52-0.96
		c0.34-0.53,0.68-1.16,1.01-1.88c0.17-0.34,0.33-0.66,0.47-0.94s0.3-0.63,0.49-1.03l0.82-1.87l-8.06,0.28
		c-0.27,0-0.51-0.14-0.73-0.42l-0.23-1.01v-0.35v-0.19v-0.28c0-0.41,0.07-0.74,0.22-1.01s0.39-0.42,0.74-0.47h9.94
		c0-0.44,0.15-0.83,0.45-1.17c0.23-0.33,0.59-0.52,1.05-0.56l0.28,0.05l0.28,0.14l0.4,0.47l0.14,0.59v0.19l-0.05,0.19
		c0.17,0,0.28,0.07,0.33,0.21l0.09,0.38v0.19v0.23v0.4l0.05,0.38v0.63l0.05,0.47c0,0.2-0.09,0.35-0.28,0.45l-0.63,0.14l-0.23,0.05
		h-0.19h-0.28l-0.16-0.05l-0.61,2.06l-1.2,4.45l-0.21,0.63l-0.14,0.63l-0.77,3.02l-0.52,2.58l-0.19,0.96l-0.09,0.96
		c0,0.45-0.03,0.84-0.09,1.15v1.01l0.05,1.1c0.05,0.3,0.13,0.46,0.23,0.49h0.19c0.42,0,0.98-0.3,1.69-0.91l3.02-2.79
		c0.03-0.03,0.06-0.05,0.09-0.05c0.06,0,0.11,0.02,0.14,0.05l0.09,0.4v0.23v0.28l0.05,0.19v0.35v0.19l-0.05,0.14l-0.09,0.38
		c-0.06,0.11-0.14,0.21-0.23,0.3l-1.01,1.05l-1.59,1.62l-0.56,0.59l-0.54,0.47l-1.48,1.17c-0.5,0.33-0.94,0.52-1.31,0.56H398.75z"/>
	<path d="M413.35,35.37c-1.41,0.55-2.54,0.82-3.4,0.82h-0.16c-1.31,0-2.4-0.5-3.26-1.5c-0.83-1.11-1.24-2.32-1.24-3.63v-0.3
		c0-1.63,0.29-3.14,0.87-4.55c0.33-0.86,0.63-1.5,0.91-1.92c0.41-0.66,0.76-1.17,1.05-1.55l0.14-0.14l1.59-1.62
		c0.16-0.14,0.42-0.34,0.8-0.59c0.28-0.2,0.59-0.38,0.91-0.52l0.87-0.35l0.87-0.09l0.87,0.14l0.82,0.4
		c0.22,0.17,0.39,0.38,0.52,0.61l0.19,0.87c0,0.45-0.13,1.02-0.38,1.69c-0.08,0.2-0.22,0.49-0.42,0.87
		c-0.06,0.11-0.17,0.27-0.33,0.49s-0.27,0.39-0.35,0.52l-0.68,0.87l-0.82,0.84l-0.23,0.26l-0.23,0.19l-0.54,0.47l-0.52,0.4
		l-1.55,1.05l-0.75,0.42v0.23l-0.05,0.26v0.23v0.47l0.09,0.49c0.09,0.39,0.33,0.77,0.7,1.15c0.38,0.3,0.94,0.49,1.69,0.59h0.19h0.19
		h0.21h0.19c0.69,0,1.42-0.21,2.2-0.63l1.97-1.2l1.15-0.91l0.77-0.68c0.08-0.13,0.17-0.19,0.28-0.19c0.03,0,0.06,0.02,0.09,0.05
		l0.3,0.33v0.21l0.05,0.19l0.05,0.23c0,0.41-0.07,0.71-0.21,0.91l-0.56,0.73C416.36,33.69,414.74,34.83,413.35,35.37z M411.15,25.67
		l0.33-0.42l0.23-0.38c0.19-0.22,0.3-0.49,0.35-0.82c0-0.23-0.12-0.41-0.35-0.54l-0.09-0.05h-0.14c-0.19,0.03-0.33,0.09-0.42,0.19
		l-0.4,0.4l-0.19,0.23l-0.09,0.19l-0.14,0.14l-0.09,0.14l-0.09,0.12l-1.05,1.29c-0.14,0.19-0.21,0.36-0.21,0.52
		c0,0.08,0.04,0.2,0.12,0.35c0.06,0.06,0.14,0.09,0.23,0.09c0.17,0,0.38-0.09,0.61-0.28l1.31-1.08L411.15,25.67z"/>
	<path d="M418.79,28.95l0.66-0.59l1.92-2.16c0.47-0.63,0.88-1.49,1.24-2.6v-0.14v-0.19l-0.05-0.19v-0.14l-0.09-0.21v-0.23v-0.19
		l0.05-0.19l0.3-0.45l0.66-0.52l0.82-0.49l0.87-0.42l0.52-0.19l0.49-0.19h0.05h0.05c0.19,0,0.59,0.14,1.2,0.42l1.92,1.1
		c0.42,0.3,1.08,0.89,1.97,1.78c0.59,0.59,0.99,1.28,1.2,2.06l0.05,0.23v0.23l-0.14,1.36l-0.33,1.48l-0.19,0.49l-0.09,0.47
		l-0.54,1.78l-0.23,1.15v0.19l0.09,0.09c0.06-0.03,0.13-0.05,0.19-0.06s0.13-0.02,0.19-0.04c0.22-0.08,0.4-0.16,0.54-0.23l1.48-1.01
		l0.3-0.23l0.28-0.23l0.96-0.82l0.73-0.68c0.03-0.03,0.06-0.05,0.09-0.05c0.09,0,0.16,0.02,0.19,0.05c0.09,0.14,0.14,0.3,0.14,0.49
		v0.09v0.09l-0.05,0.19c0,0.72-0.14,1.28-0.42,1.69c-0.44,0.53-0.91,0.96-1.41,1.29l-0.28,0.19l-0.23,0.19l-0.21,0.16l-0.14,0.09
		l-0.75,0.56l-0.77,0.49c-0.81,0.53-1.5,0.91-2.06,1.15c-0.69,0.31-1.25,0.47-1.69,0.47h-0.14l-0.14-0.05
		c-0.39-0.09-0.68-0.23-0.87-0.42c-0.11-0.16-0.19-0.43-0.23-0.82l0.09-0.63l0.19-0.7l1.29-3.66l0.09-0.38l0.09-0.4l0.05-0.38v-0.4
		c0-0.98-0.25-1.88-0.75-2.67c-0.55-0.78-1.35-1.31-2.41-1.59l-0.38,0.49l-0.91,1.01l-0.09,0.09l-0.45,0.52l-0.33,0.35l-2.74,2.81
		l-2.39,2.23c-0.03,0.03-0.08,0.05-0.14,0.05s-0.13-0.03-0.19-0.09l-0.21-0.68v-0.28c0-0.38,0.07-0.68,0.21-0.91l0.33-0.54
		L418.79,28.95z"/>
</g>
</svg>
