<?xml version="1.0" encoding="iso-8859-1"?>
<!-- Generator: Adobe Illustrator 19.0.0, SVG Export Plug-In . SVG Version: 6.00 Build 0)  -->
<svg version="1.1" id="Capa_1" xmlns="http://www.w3.org/2000/svg" xmlns:xlink="http://www.w3.org/1999/xlink" x="0px" y="0px"
	 viewBox="0 0 512.001 512.001" style="enable-background:new 0 0 512.001 512.001;" xml:space="preserve">

	<path style="fill:#4FD9E0;" d="M117.782,174.29c-43.788,0-79.412-35.624-79.412-79.411s35.624-79.412,79.412-79.412
		s79.412,35.625,79.412,79.412S161.57,174.29,117.782,174.29z"/>
	<path style="fill:#4FD9E0;" d="M117.782,496.533c-6.242,0-11.858-3.792-14.19-9.582L1.109,232.582
		c-1.9-4.715-1.334-10.066,1.51-14.278c2.845-4.213,7.596-6.738,12.68-6.738h204.966c5.083,0,9.835,2.525,12.68,6.738
		s3.411,9.563,1.51,14.278L131.972,486.951C129.64,492.741,124.024,496.533,117.782,496.533z"/>
	<path style="fill:#4FD9E0;" d="M394.219,174.29c-43.788,0-79.412-35.624-79.412-79.411s35.624-79.412,79.412-79.412
		s79.412,35.625,79.412,79.412S438.006,174.29,394.219,174.29z"/>
	<path style="fill:#4FD9E0;" d="M496.702,496.533H291.736c-5.083,0-9.835-2.525-12.68-6.738c-2.845-4.212-3.411-9.563-1.51-14.278
		l102.483-254.37c2.333-5.79,7.948-9.582,14.19-9.582c6.242,0,11.858,3.792,14.19,9.582l102.483,254.369
		c1.9,4.715,1.334,10.066-1.51,14.278C506.537,494.008,501.785,496.533,496.702,496.533z"/>

	<path style="fill:#16A9C7;" d="M220.266,211.566H117.782v284.966c6.242,0,11.858-3.792,14.19-9.582l102.483-254.369
		c1.9-4.715,1.334-10.066-1.51-14.278C230.1,214.091,225.348,211.566,220.266,211.566z"/>
	<path style="fill:#16A9C7;" d="M197.194,94.879c0-43.788-35.624-79.412-79.412-79.412v158.823
		C161.57,174.29,197.194,138.667,197.194,94.879z"/>
	<path style="fill:#16A9C7;" d="M408.409,221.148c-2.333-5.79-7.948-9.582-14.19-9.582c-0.25,0-0.498,0.016-0.746,0.029v284.939
		h103.229c5.083,0,9.835-2.525,12.68-6.738c2.845-4.212,3.411-9.563,1.51-14.278L408.409,221.148z"/>
	<path style="fill:#16A9C7;" d="M394.219,15.468c-0.25,0-0.496,0.016-0.745,0.019v158.785c0.249,0.002,0.495,0.019,0.745,0.019
		c43.788,0,79.412-35.624,79.412-79.411S438.006,15.468,394.219,15.468z"/>

</svg>
